solid T_MESH
 facet normal 0.000000 0.000000 -1.000000
  outer loop
   vertex 0.000000 0.000000 0.000000
   vertex 20.000000 0.000000 0.000000
   vertex 0.000000 -20.000000 0.000000
  endloop
 endfacet
 facet normal 0.000000 -0.000000 -1.000000
  outer loop
   vertex 20.000000 -20.000000 0.000000
   vertex 0.000000 -20.000000 0.000000
   vertex 20.000000 0.000000 0.000000
  endloop
 endfacet
 facet normal 0.000000 -1.000000 0.000000
  outer loop
   vertex 20.000000 -20.000000 0.000000
   vertex 20.000000 -20.000000 20.000000
   vertex 0.000000 -20.000000 0.000000
  endloop
 endfacet
 facet normal -0.000000 -1.000000 0.000000
  outer loop
   vertex 0.000000 -20.000000 20.000000
   vertex 0.000000 -20.000000 0.000000
   vertex 20.000000 -20.000000 20.000000
  endloop
 endfacet
 facet normal 1.000000 0.000000 0.000000
  outer loop
   vertex 20.000000 -20.000000 0.000000
   vertex 20.000000 0.000000 0.000000
   vertex 20.000000 -20.000000 20.000000
  endloop
 endfacet
 facet normal 1.000000 0.000000 -0.000000
  outer loop
   vertex 20.000000 0.000000 20.000000
   vertex 20.000000 -20.000000 20.000000
   vertex 20.000000 0.000000 0.000000
  endloop
 endfacet
 facet normal 0.000000 0.000000 1.000000
  outer loop
   vertex 0.000000 -20.000000 20.000000
   vertex 20.000000 -20.000000 20.000000
   vertex 0.000000 0.000000 20.000000
  endloop
 endfacet
 facet normal 0.000000 -0.000000 1.000000
  outer loop
   vertex 20.000000 0.000000 20.000000
   vertex 0.000000 0.000000 20.000000
   vertex 20.000000 -20.000000 20.000000
  endloop
 endfacet
 facet normal -1.000000 0.000000 0.000000
  outer loop
   vertex 0.000000 -20.000000 20.000000
   vertex 0.000000 0.000000 20.000000
   vertex 0.000000 -20.000000 0.000000
  endloop
 endfacet
 facet normal -1.000000 0.000000 -0.000000
  outer loop
   vertex 0.000000 0.000000 0.000000
   vertex 0.000000 -20.000000 0.000000
   vertex 0.000000 0.000000 20.000000
  endloop
 endfacet
 facet normal 0.000000 1.000000 0.000000
  outer loop
   vertex 0.000000 0.000000 0.000000
   vertex 0.000000 0.000000 20.000000
   vertex 20.000000 0.000000 0.000000
  endloop
 endfacet
 facet normal -0.000000 1.000000 0.000000
  outer loop
   vertex 20.000000 0.000000 20.000000
   vertex 20.000000 0.000000 0.000000
   vertex 0.000000 0.000000 20.000000
  endloop
 endfacet
endsolid T_MESH
